#!OML:ASF X:\für Bonn\!DataBase\2005_08_10_Bjorn_Final\c3d\bjorn.ASF
:FULLY-SPECIFIED
:DEGREES
226
root -0.387896 17.8698 6.88638 -176.956 -1.67239 179.059
lowerback -7.50243 -0.95593 2.35783
upperback 7.35824 -2.11468 1.11954
thorax 12.1517 -1.02366 -0.517053
lowerneck 1.19873 0.952165 0.260637
upperneck 11.8892 2.56023 -4.94761
head 3.73307 1.40515 -1.58991
rclavicle 1.98785e-015 -1.35174e-014
rhumerus -28.6248 -10.7587 -84.8695
rradius 24.4479
rwrist 1.69555
rhand -11.8655 14.7591
rfingers 7.12502
rthumb 14.1866 -14.7364
lclavicle 1.98785e-015 -1.35174e-014
lhumerus -395.102 -47.0846 -265.637
lradius 62.0648
lwrist -6.254
lhand -41.6979 -20.837
lfingers 7.12502
lthumb -14.6041 8.62877
rfemur -45.4771 3.16431 7.62167
rtibia 55.0056
rfoot -10.6878 12.2026
rtoes -18.6077
lfemur 5.85894 6.44241 -15.443
ltibia 28.6288
lfoot -31.5816 -7.82938
ltoes -16.5298
227
root -0.34772 17.8348 6.8273 -177.178 -1.79065 178.951
lowerback -7.58521 -0.933307 2.15936
upperback 7.57449 -2.08961 1.10736
thorax 12.4586 -1.03288 -0.421572
lowerneck 1.06608 0.990837 0.497342
upperneck 11.5126 2.5763 -5.22388
head 3.63645 1.40106 -1.72229
rclavicle 4.17448e-015 2.14687e-014
rhumerus -27.9864 -10.5041 -84.9285
rradius 24.3747
rwrist 1.96346
rhand -11.8209 14.8023
rfingers 7.12502
rthumb 14.2296 -14.6902
lclavicle 4.17448e-015 2.14687e-014
lhumerus -394.066 -46.9301 -266.436
lradius 62.6018
lwrist -6.70268
lhand -41.3938 -20.9017
lfingers 7.12502
lthumb -14.3111 8.58507
rfemur -44.9652 3.15831 7.559
rtibia 55.234
rfoot -11.0259 12.6172
rtoes -20.1241
lfemur 6.32448 6.25651 -15.3632
ltibia 28.6236
lfoot -31.7619 -7.78084
ltoes -16.6734
228
root -0.306598 17.8011 6.7679 -177.376 -1.90526 178.91
lowerback -7.679 -0.903492 2.03478
upperback 7.79766 -2.06918 1.11248
thorax 12.7806 -1.04031 -0.34996
lowerneck 0.857977 1.06618 0.637409
upperneck 11.1689 2.62521 -5.33827
head 3.56214 1.41152 -1.78201
rclavicle -7.55382e-015 -2.94201e-014
rhumerus -27.2916 -10.4551 -84.9447
rradius 24.227
rwrist 2.4408
rhand -11.7655 15.0187
rfingers 7.12502
rthumb 14.283 -14.4701
lclavicle -7.55382e-015 -2.94201e-014
lhumerus -392.941 -46.7657 -267.287
lradius 63.0902
lwrist -7.04098
lhand -41.1357 -21.0146
lfingers 7.12502
lthumb -14.0624 8.48966
rfemur -44.4637 3.12432 7.59739
rtibia 55.4623
rfoot -11.4233 13.0194
rtoes -21.7604
lfemur 6.74473 6.0762 -15.211
ltibia 28.6391
lfoot -31.9458 -7.71004
ltoes -16.8021
229
root -0.265004 17.7653 6.70646 -177.595 -1.99054 178.871
lowerback -7.75372 -0.876508 1.91383
upperback 8.03243 -2.05662 1.12408
thorax 13.1061 -1.05358 -0.274607
lowerneck 0.47777 1.13898 0.838988
upperneck 10.9335 2.6987 -5.61336
head 3.56518 1.42951 -1.90649
rclavicle 9.54166e-015 -2.94201e-014
rhumerus -26.572 -10.3792 -84.9575
rradius 24.0908
rwrist 2.89225
rhand -11.6697 15.1238
rfingers 7.12502
rthumb 14.3753 -14.3584
lclavicle 9.54166e-015 -2.94201e-014
lhumerus -391.748 -46.5339 -268.159
lradius 63.5104
lwrist -7.29091
lhand -40.9114 -21.1968
lfingers 7.12502
lthumb -13.8462 8.32227
rfemur -43.9435 3.08589 7.66439
rtibia 55.6859
rfoot -11.8563 13.4377
rtoes -23.4515
lfemur 7.20016 5.8165 -15.1013
ltibia 28.6543
lfoot -32.2074 -7.4069
ltoes -17.393
230
root -0.221646 17.7298 6.6445 -177.812 -2.07515 178.817
lowerback -7.8261 -0.831746 1.83251
upperback 8.28498 -2.01971 1.0734
thorax 13.4495 -1.04856 -0.285355
lowerneck 0.0696348 1.22176 1.2139
upperneck 10.6128 2.77383 -5.97434
head 3.55039 1.4494 -2.09118
rclavicle -3.20043e-014 3.18055e-015
rhumerus -25.8203 -10.4981 -85.0468
rradius 23.9494
rwrist 3.47122
rhand -11.5177 15.0788
rfingers 7.12502
rthumb 14.5217 -14.3929
lclavicle -3.20043e-014 3.18055e-015
lhumerus -390.512 -46.3304 -269.13
lradius 63.8772
lwrist -7.4676
lhand -40.7338 -21.4347
lfingers 7.12502
lthumb -13.6751 8.09607
rfemur -43.439 3.04923 7.73164
rtibia 55.8962
rfoot -12.219 13.8298
rtoes -24.6843
lfemur 7.66528 5.50337 -15.0212
ltibia 28.643
lfoot -32.4399 -7.1578
ltoes -17.6872
231
root -0.177371 17.6962 6.58061 -178.061 -2.13025 178.792
lowerback -7.86475 -0.78915 1.797
upperback 8.54228 -1.99573 1.03145
thorax 13.7784 -1.04767 -0.314393
lowerneck -0.324837 1.33056 1.47808
upperneck 10.2586 2.8738 -6.25294
head 3.51933 1.48004 -2.22737
rclavicle 1.53064e-014 1.27222e-014
rhumerus -25.0705 -10.6433 -85.1225
rradius 23.8341
rwrist 4.08484
rhand -11.2501 14.9147
rfingers 7.12502
rthumb 14.7795 -14.5384
lclavicle 1.53064e-014 1.27222e-014
lhumerus -389.273 -45.9896 -270.085
lradius 64.1964
lwrist -7.64387
lhand -40.5581 -21.6626
lfingers 7.12502
lthumb -13.5058 7.87948
rfemur -42.9215 3.0388 7.85003
rtibia 56.0829
rfoot -12.5005 14.2336
rtoes -25.3538
lfemur 8.20982 5.14227 -14.9397
ltibia 28.568
lfoot -32.6582 -6.74659
ltoes -18.3143
232
root -0.130136 17.6632 6.51611 -178.302 -2.13182 178.755
lowerback -7.90395 -0.737981 1.70992
upperback 8.8111 -1.95836 1.00577
thorax 14.126 -1.0482 -0.29473
lowerneck -0.771483 1.48651 1.67654
upperneck 9.91182 3.03421 -6.48663
head 3.50236 1.53841 -2.33439
rclavicle 2.78299e-015 -7.95139e-016
rhumerus -24.2711 -10.7692 -85.2061
rradius 23.7159
rwrist 4.68288
rhand -10.9708 14.6698
rfingers 7.12502
rthumb 15.0487 -14.7632
lclavicle 2.78299e-015 -7.95139e-016
lhumerus -388.036 -45.4454 -270.991
lradius 64.4356
lwrist -7.94909
lhand -40.4326 -21.9044
lfingers 7.12502
lthumb -13.3848 7.64563
rfemur -42.4483 3.10147 7.96359
rtibia 56.2556
rfoot -12.7476 14.6377
rtoes -25.4319
lfemur 8.77489 4.807 -14.8799
ltibia 28.4405
lfoot -32.8256 -6.33288
ltoes -18.8083
233
root -0.0818457 17.6311 6.45074 -178.581 -2.11178 178.733
lowerback -7.88543 -0.687332 1.62957
upperback 9.06802 -1.92555 1.00381
thorax 14.4254 -1.05387 -0.252185
lowerneck -1.13502 1.67006 1.74418
upperneck 9.54339 3.22821 -6.61726
head 3.45872 1.61526 -2.38073
rclavicle 6.36111e-015 8.74653e-015
rhumerus -23.5287 -10.8619 -85.2609
rradius 23.6234
rwrist 5.24143
rhand -10.6695 14.4066
rfingers 7.12502
rthumb 15.3389 -15.0045
lclavicle 6.36111e-015 8.74653e-015
lhumerus -386.883 -44.7108 -271.749
lradius 64.5816
lwrist -8.36989
lhand -40.2991 -22.1045
lfingers 7.12502
lthumb -13.2561 7.45394
rfemur -41.965 3.17568 8.11712
rtibia 56.4347
rfoot -13.0757 15.0094
rtoes -25.2754
lfemur 9.40431 4.49238 -14.8047
ltibia 28.277
lfoot -32.9791 -5.85935
ltoes -19.5328
